<?xml version="1.0" encoding="UTF-8"?>
<svg id="Layer_2" data-name="Layer 2" xmlns="http://www.w3.org/2000/svg" viewBox="0 0 864.23 292.23">
  <defs>
    <style>
      .cls-1 {
        fill: #fff;
      }
    </style>
  </defs>
  <g id="Layer_1-2" data-name="Layer 1">
    <path class="cls-1" d="M685.13,153.54l-119.1,109.69-5.6.19-40.81.14-20.4.11-40.75.2-40.75.2-20.33.14-14.29.07c-.19,0-.52-.31-.6-.54l.07-40.3.07-66.87-149.77,134.09-6.59.18-15.62.1-31.95.13-15.83.1-16.08.15-15.12.11-32.29.14-15.7.12-31.95.13-15.83.11-16.05.19-18.9.1-.11-8.11-.19-31.73-.16-31.55-.16-16.11-.24-47.2c-.02-3.44-.24-6.69-.04-10.14L132.23,11.31l9.53-9.78,4.6-.18,47.62-.24,31.95-.18,31.48-.17,12.26-.04,4.04-.16,46.16-.16,4.78-.18,6.5.03,5.69-.14,21.05-.12h23.73c.13,0,.46.16.46.53.04,11.23.11,24.97.17,36.72l.17,30.93.09,16.76.07,14.73.14,16.35.11,5.64.05,21.19c0,.13.09.59.12.72.05.22,2.44-1.61,2.6-1.78l110.45-117.27,8.91-.14,30.79-.24,14.58-.11,19.87-.15,34.89-.12,81.34-.03-.07,25.65-.11,50.25-.03,21.01c-.01,6.92-.2,13.64.13,20.75l23.37-36.6,25.87-40.58,15.65-24.55c.15-.23.18-.67,1.05-.67l28.46-.08,7.02-.06,16-.1,13.27-.08,4.47-.17h8.78s32.73-.1,32.73-.1c.4,0,.51.65.52,1.05l.1,16.6.31,58.06.06,13.28.17,9.52.05,12.27c0,.37-.27.79-.35.9l-19.66,26.94-.24.33-4.01,5.49-.21.29-.24.32-45.75,62.69c-.15-.03-.69-.14-.76-.13h-.49s-.5.02-.5.02h-.5s-.5.02-.5.02h-.5s-.5.01-.5.01h-.5s-.5,0-.5,0h-.5s-.5,0-.5,0h-.5s-.5,0-.5,0h-.5s-.5,0-.5,0h-.5s-.5,0-.5,0h-.5s-.5,0-.5,0h-.5s-.5,0-.5,0h-.5s-.5,0-.5,0h-.5s-.5,0-.5,0h-.5s-.5,0-.5,0h-.5s-.5,0-.5,0h-.5s-.5,0-.5,0h-.53s-.74,0-.74,0l-89.07.62c-.84,0-.83-.06-.86-.1l-.31-.28c-.09-.09-.4-.28-.41-.98l-.26-46.06v-.67s0-.52,0-.52v-.5s0-.5,0-.5v-.5s0-.5,0-.5v-.5s0-.5,0-.5v-.5s0-.5,0-.5v-.5s0-.5,0-.5v-.5s0-.5,0-.5v-.5s-.01-.5-.01-.5v-.49s-.02-.5-.02-.5v-.5s-.02-.5-.02-.5v-.5s0-.5,0-.5v-.5s0-.5,0-.5v-.5s0-.5,0-.5v-.5s0-.5,0-.5v-.5s0-.5,0-.5v-.5s0-.5,0-.5v-.5s0-.5,0-.5v-.5s0-.5,0-.5v-.5s0-.5,0-.5v-.5s0-.5,0-.5v-.5s0-.5,0-.5v-.5s0-.5,0-.5v-.5s0-.51,0-.51v-.52c0-.13-.01-.31-.02-.43l-.03-.43-.03-.41-.03-.46c-.01-.14-.01-.31-.01-.47v-.52s0-.5,0-.5v-.5s0-.5,0-.5v-.5s0-.5,0-.5v-.5s0-.5,0-.5v-.5s0-.5,0-.5v-.5s0-.5,0-.5v-.5s0-.5,0-.5v-.5s0-.5,0-.5v-.5s0-.5,0-.5v-.5s0-.5,0-.5v-.5s0-.5,0-.5v-.5s0-.5,0-.5v-.5s0-.5,0-.5v-.5s-.01-.5-.01-.5v-.5s-.02-.5-.02-.5v-.5s-.01-.5-.01-.5v-.5s0-.5,0-.5v-.5s0-.5,0-.5v-.5s0-1.39,0-1.39l-.46.06Z"/>
  </g>
</svg>