<svg xmlns="http://www.w3.org/2000/svg" width="219" height="27" fill="none" viewBox="0 0 219 27"><g clip-path="url(#a)"><path fill="#fff" fill-rule="evenodd" d="M39.69.23 26.92 24.926h8.535l2.041-4.517h9.489l.813 4.518h8.535L51.4.233H39.69zm-.072 15.453 5.257-10.369h.072l1.584 10.369zM70.449.23h-8.221l-3.705 24.692h20.392l.846-5.926H67.59zm69.21 0-7.899 18.521h-.072L129.5.231h-10.479l-9.133 24.692h8.04l5.996-17.819h.071l1.904 17.818h9.738l7.41-17.392h.066l1.236 17.392h8.218L150.417.23zm71.053 0-2.786 18.096h-.069L200.026.23h-11.115l-3.702 24.692h7.829l2.398-17.71h.072l7.409 17.709h11.499L218.12.23zm-99.314 8.766c.704-3.809-.339-6.102-2.575-7.442-2.234-1.34-5.681-1.552-9.808-1.552S91.36.215 88.607 1.555c-2.752 1.34-4.653 3.646-5.36 7.442l-1.308 7.145c-.703 3.807.342 6.066 2.614 7.406s5.677 1.589 9.804 1.589c4.126 0 7.726-.25 10.444-1.59s4.586-3.598 5.291-7.405zm-8.362.681-1.163 5.964c-.776 3.916-2.433 4.3-6.701 4.3-4.27 0-5.821-.34-5.047-4.3l1.181-5.964c.78-3.915 2.576-4.269 6.703-4.269 4.357.003 5.769.39 5.027 4.27m78.891-8.11c-2.259-1.339-5.68-1.55-9.807-1.55-4.126 0-7.655.21-10.406 1.55-2.753 1.34-4.658 3.634-5.363 7.43l-1.305 7.144c-.705 3.807.339 6.066 2.612 7.406s5.678 1.589 9.805 1.589 7.726-.25 10.44-1.59c2.716-1.34 4.576-3.601 5.294-7.405l1.303-7.145c.701-3.795-.351-6.088-2.573-7.428m-5.783 8.113-1.15 5.965c-.776 3.915-2.435 4.3-6.701 4.3-4.265 0-5.82-.34-5.046-4.3l1.147-5.968c.776-3.915 2.575-4.269 6.702-4.269 4.375.003 5.787.391 5.045 4.27zm-151.407 4.13L12.76 7.916c-1.941-.952-2.085-1.34-1.907-2.225.104-.53.424-.813 1.73-.954.814-.07 2.332-.109 3.815-.109.92 0 2.085.04 2.684.077 2.157.14 2.401.455 2.12 1.87l-.421 2.12h7.664l.774-3.89C29.856 1.593 28.727 0 24.559 0H10.747C5.66 0 4.316.92 3.541 4.803L3.081 7.1c-.457 2.334.178 3.674 3.676 5.406l8.865 4.344c2.579 1.273 2.789 1.589 2.613 2.44-.14.741-.422.952-1.701 1.058q-1.89.113-3.78.104c-2.015 0-3.062-.033-3.923-.176-1.02-.178-1.268-.636-1.128-1.34l.492-2.474H.857L.15 19.994c-.708 3.533 1.059 5.123 5.65 5.123h13.851c4.942 0 6.123-1.415 6.885-5.195l.492-2.402c.354-1.8.072-2.54-2.292-3.708" clip-rule="evenodd"/></g><defs><clipPath id="a"><path fill="#fff" d="M0 0h218.12v26.486H0z"/></clipPath></defs></svg>