<svg xmlns="http://www.w3.org/2000/svg" width="437" height="206" fill="none" viewBox="0 0 437 206"><g fill="#000" clip-path="url(#a)"><path d="M153.775 61.074h-12.651v-49.95h-18.322V.218h49.295v10.906h-18.322zm35.554-27.265v27.265h-12.651V.218h12.651v23.12h23.775V.219h12.651v60.856h-12.651V33.809zm85.503-22.903h-31.846v12.87h28.138v10.687h-28.138v15.923h31.846v10.688h-43.624V.218h43.624zM37.735 70.453h11.778v60.637h-12.65L11.996 87.903h-.219v43.187H0V70.453h13.305l24.212 42.097h.218zm46.678-1.745c8.07 0 29.228 3.49 29.228 31.846 0 28.355-21.158 31.845-29.228 31.845s-29.228-3.49-29.228-31.845c0-28.356 21.157-31.846 29.228-31.846m0 53.221c6.761 0 16.359-4.144 16.359-21.157 0-17.014-9.598-21.158-16.36-21.158s-16.577 4.144-16.577 21.158c0 17.013 9.816 21.157 16.578 21.157m118.657 9.161h-12.651V81.14h-18.54V70.454h49.513V81.14H203.07zm35.554-27.265v27.265h-12.651V70.453h12.651v22.903h23.557V70.453h12.651v60.637h-12.651v-27.265zM118.876 70.453h30.755c16.141 0 19.194 11.996 19.194 17.231 0 6.762-3.49 12.433-9.379 14.396 5.017 2.182 7.634 4.145 7.634 15.487 0 8.943 0 11.124 2.618 11.997v1.526h-13.96c-.872-2.835-1.309-5.889-1.309-12.214 0-8.289-.436-11.561-9.815-11.561h-13.087v23.775h-12.433zm27.265 26.61c6.543 0 9.815-2.399 9.815-8.288 0-3.272-1.527-7.852-8.943-7.852h-15.704v16.14zM89.429 203.07H76.56v-62.382h44.279v11.124h-31.41v13.96h27.484v11.124H89.429zm37.299 0h-13.742l22.249-62.382h15.05l22.03 62.382h-14.178l-3.926-12.869h-23.339zm7.634-23.557h15.923l-7.634-24.647h-.218zm77.651-18.104c-1.091-3.708-3.054-10.688-13.742-10.688-6.325 0-15.486 4.145-15.486 21.812 0 11.124 4.362 21.158 15.486 21.158 7.198 0 12.215-4.144 13.742-11.779H225.1c-2.617 13.524-11.342 22.903-27.047 22.903-16.577 0-28.355-11.124-28.355-32.718 0-21.812 12.651-32.936 28.573-32.936 18.541 0 26.175 12.869 26.829 22.03h-13.087zm63.037-9.597h-32.718v13.087h29.01v10.906h-29.01v16.141h32.718v11.124h-44.715v-62.382h44.715zM53.003 171.443c9.161 0 16.796 7.198 16.796 16.795s-7.635 16.795-16.796 16.795-17.013-7.198-17.013-16.795 7.852-16.795 17.013-16.795m0 31.191c7.853 0 13.742-6.107 13.742-14.396 0-8.071-6.108-14.178-13.742-14.178-7.852 0-13.96 6.107-13.96 14.178 0 8.07 6.108 14.396 13.96 14.396m-6.543-24.211h7.634c4.58 0 6.98 1.744 6.98 5.671 0 3.49-2.181 5.016-5.235 5.453l5.671 8.724h-3.272l-5.453-8.506h-3.272v8.506H46.46zm3.053 8.724h3.272c2.618 0 5.235-.218 5.235-3.271 0-2.618-2.181-3.054-4.362-3.054h-4.145zm266.98 11.997V167.08c0-14.396-11.779-26.174-26.175-26.174h-2.835v62.382h29.01zm119.748 0v-53.221C436.241 65.436 370.805 0 290.318 0h-1.527.219-1.527v61.074h4.144c47.332.654 85.939 39.261 86.594 86.594v55.184h58.02z"/><path d="M368.842 201.325V148.54c-.218-42.097-33.809-76.342-75.47-78.087h-4.799.218-1.526v60.855h2.835c19.631 0 35.336 15.923 35.336 35.336v36.208h43.406z"/></g><defs><clipPath id="a"><path fill="#fff" d="M0 0h436.241v205.033H0z"/></clipPath></defs></svg>